<?xml version="1.0" encoding="utf-8"?>
<!-- Generator: Adobe Illustrator 25.0.0, SVG Export Plug-In . SVG Version: 6.00 Build 0)  -->
<svg version="1.1" id="Layer_1" xmlns="http://www.w3.org/2000/svg" xmlns:xlink="http://www.w3.org/1999/xlink" x="0px" y="0px"
	 viewBox="0 0 512 512" style="enable-background:new 0 0 512 512;" xml:space="preserve">
<style type="text/css">
	.st0{fill:#D44036;}
	.st1{fill:#0D9E57;}
	.st2{fill:#567EBF;}
	.st3{fill:#F7C541;}
	.st4{fill:url(#path18-5_1_);}
	.st5{fill:url(#path12-7_1_);}
</style>
<g id="layer2">
	<g id="_x23_d43f36ff" transform="translate(0,-3.3300938e-6)">
		<path id="path6" class="st0" d="M150.1,88.8c-13.8-0.2-25.6,9.6-31.5,21.5c-11.5,19.2-22.9,38.4-34.4,57.5
			c13.7,36.3,35.9,69,57.8,100.8c1-8.9,2.2-18.7,7.8-26c28.3-46.2,56.5-92.4,84.8-138.6c6.1-7.5-0.6-16.8-9.5-15.4
			C200.2,88.5,175.2,88.7,150.1,88.8z"/>
	</g>
	<path id="path9" class="st1" d="M275.6,93.7c2.5-5.7,9.7-4.5,14.7-5l71.5,0.2c11.5,0,22.5,6.5,28.4,16.3l85.8,139.7
		c6.7,10.1,6.8,24,0,34.1c-16.4,26.2-31.9,52.9-48.7,78.7c-1.8-9.8-4.7-19.5-10.3-27.8c-16.5-25.4-31.4-51.8-47.9-77.2l-90-145.4
		C276.7,103.2,273.7,98.5,275.6,93.7z"/>
	<g id="_x23_4585f4ff" transform="translate(0,-3.3300938e-6)">
		<path id="path15" class="st2" d="M84.3,167.8c19.9,35.3,38.3,71.7,61,105.3c29.5,48.2,58.9,96.5,88.4,144.7
			c8.8,12.1-2.9,17.4-14.3,17.3c-23.7-0.1-47.5,0.1-71.2-0.2c-12.9-0.7-23.4-9.6-28.9-20.7c-28.1-45.8-56.4-91.5-84.4-137.3
			c-6.2-10.7-4.7-24.3,2.9-33.9C53.2,218,68.8,192.9,84.3,167.8z"/>
	</g>
	<g id="_x23_e9b641ff" transform="translate(0,-3.3300938e-6)">
		<path id="path18" class="st3" d="M369.1,252.6c0.8,10.1-0.8,20.6-6.9,28.8c-28.2,46.1-56.5,92-84.5,138.1c-5,7.6,0.7,15.2,9,14.9
			l76.8,0.4c13.4-0.5,25-9.6,30.6-21.5c10.8-18.8,22.2-37.1,33.3-55.7c-1.7-12.2-7-23.4-13.8-33.5
			C398.6,300.3,383.8,276.5,369.1,252.6z"/>
	</g>
	<g id="_x23_e9b641ff-0">
		
			<radialGradient id="path18-5_1_" cx="145.9053" cy="322.0681" r="46.0442" gradientTransform="matrix(1.1898 -0.8711 -1.3386 -1.8282 685.9418 1083.0726)" gradientUnits="userSpaceOnUse">
			<stop  offset="0" style="stop-color:#DAAC3B"/>
			<stop  offset="1" style="stop-color:#F7C541"/>
		</radialGradient>
		<path id="path18-5" class="st4" d="M369,252.6c16.5,25.4,31.5,51.8,47.9,77.2c5.6,8.3,8.5,18.1,10.3,27.8l-4.2,7.1l-73.5-57.9
			c3.9-6.8,11.5-23,15.4-29.9C369.2,269.7,369.3,260.9,369,252.6L369,252.6z"/>
	</g>
	
		<radialGradient id="path12-7_1_" cx="93.7887" cy="547.4951" r="42.2253" gradientTransform="matrix(1.517 1.8379 1.0054 -0.83 -612.9995 444.1771)" gradientUnits="userSpaceOnUse">
		<stop  offset="0" style="stop-color:#B73A33"/>
		<stop  offset="1" style="stop-color:#D44036"/>
	</radialGradient>
	<path id="path12-7" class="st5" d="M91.6,155.7c24.5,19.5,49,39,73.5,58.4c-7.7,16.5-19.3,31.5-22.4,49.8c-0.2,3.4-1.1,3.8-2.7,0.5
		c-16-25-31.5-49.1-47.4-74.2c-4-7-6.3-14.7-8.3-22.4C86.7,163.8,89.2,159.7,91.6,155.7z"/>
</g>
</svg>
